<svg xmlns="http://www.w3.org/2000/svg" width="681.319" height="516.002" viewBox="0 0 681.319 516.002">
  <g id="Group_16" data-name="Group 16" transform="translate(3789.583 -6260.017) rotate(132)" opacity="0.1">
    <path id="Path_186" data-name="Path 186" d="M7421.523-1784.943a12.478,12.478,0,0,0-5.184,8.765,13.434,13.434,0,0,0,2.965,10.206c4.8,5.931,13.9,7.332,19.723,3.094l.045-.028a12.26,12.26,0,0,0,4.973-8.6,13.968,13.968,0,0,0-3.107-10.409A14.336,14.336,0,0,0,7421.523-1784.943Z" transform="translate(74.376 49.181)" fill="#fff"/>
    <path id="Path_187" data-name="Path 187" d="M7475.084-1777.077a14.635,14.635,0,0,0-9.377-5.244,14.041,14.041,0,0,0-10.086,2.577,12.512,12.512,0,0,0-2,18.625c4.959,5.727,13.824,6.843,19.588,2.511l.02-.014C7479.193-1763.118,7479.943-1771.23,7475.084-1777.077Z" transform="translate(79.854 49.989)" fill="#fff"/>
    <path id="Path_188" data-name="Path 188" d="M7400.488-1757.555h0a14.092,14.092,0,0,0-16.512-.255,12.176,12.176,0,0,0-4.762,8.755,13.734,13.734,0,0,0,3.092,9.922c4.477,5.519,12.436,7.189,18.182,4.216a11.772,11.772,0,0,0,1.617-.985c.082-.064.162-.123.24-.185a11.731,11.731,0,0,0,4.51-8.492,14.318,14.318,0,0,0-3.174-9.907A15.616,15.616,0,0,0,7400.488-1757.555Z" transform="translate(68.423 53.533)" fill="#fff"/>
    <path id="Path_189" data-name="Path 189" d="M7399.887-1792.669a14.238,14.238,0,0,0-11.537,1.936,13.369,13.369,0,0,0-2.74,18.875,14.861,14.861,0,0,0,14.277,5.906,13.167,13.167,0,0,0,5.361-2.147c.08-.055.154-.111.234-.167,5.85-4.255,6.947-12.723,2.525-18.912A14.246,14.246,0,0,0,7399.887-1792.669Z" transform="translate(69.024 48.272)" fill="#fff"/>
    <path id="Path_190" data-name="Path 190" d="M7286.508-1771.017v0a15.309,15.309,0,0,0-4.973,10,13.346,13.346,0,0,0,2.691,9.58c4.506,5.719,12.547,6.093,18.314,1.021.018-.023.051-.045.072-.068a14.669,14.669,0,0,0,4.861-9.375,13.83,13.83,0,0,0-2.57-9.785C7300.572-1775.561,7292.57-1776.307,7286.508-1771.017Z" transform="translate(52.739 51.252)" fill="#fff"/>
    <path id="Path_191" data-name="Path 191" d="M7318.713-1767.958a14.227,14.227,0,0,0-5.1,9.574,13.729,13.729,0,0,0,2.629,9.792,13.425,13.425,0,0,0,18.99,2.27l.2-.165a13.477,13.477,0,0,0,4.766-8.936,14.338,14.338,0,0,0-2.746-10A12.8,12.8,0,0,0,7318.713-1767.958Z" transform="translate(57.885 51.833)" fill="#fff"/>
    <path id="Path_192" data-name="Path 192" d="M7254.746-1772.616c-.01.006-.01.006-.01,0-5.617,5.449-6.738,14.5-2.51,19.97,4.182,5.421,12.066,5.438,17.6.223.039-.034.072-.067.111-.1a16.584,16.584,0,0,0,4.9-10.129,13.333,13.333,0,0,0-2.441-9.609C7268.268-1777.633,7260.412-1777.937,7254.746-1772.616Z" transform="translate(47.633 50.949)" fill="#fff"/>
    <path id="Path_193" data-name="Path 193" d="M7355.791-1796.546a13.468,13.468,0,0,0-5.395,9.026,13.973,13.973,0,0,0,2.549,10.27,13.977,13.977,0,0,0,19.336,3.372c.049-.031.092-.066.135-.1a13.337,13.337,0,0,0,5.256-9.063,13.924,13.924,0,0,0-2.59-10.285A13.94,13.94,0,0,0,7355.791-1796.546Z" transform="translate(63.782 47.314)" fill="#fff"/>
    <path id="Path_194" data-name="Path 194" d="M7237.063-1812.519a13.194,13.194,0,0,0-9.283,3.827l-.014.01c-5.721,5.421-7.068,14.992-2.936,20.307a9.424,9.424,0,0,0,7.473,3.637,13.878,13.878,0,0,0,9.563-3.957l.049-.049c5.689-5.314,7.049-14.3,2.891-19.777A9.993,9.993,0,0,0,7237.063-1812.519Z" transform="translate(43.26 45.159)" fill="#fff"/>
    <path id="Path_195" data-name="Path 195" d="M7167.727-1767.579a12.31,12.31,0,0,0-7.551,4.575c-.248.289-.494.6-.734.92-4.908,6.542-5.8,16.042-2.021,20.529a5.991,5.991,0,0,0,5.709,2.163c2.709-.394,5.516-2.248,7.924-5.171.189-.245.381-.488.57-.729,4.855-6.466,5.859-15.519,2.1-19.979A6.482,6.482,0,0,0,7167.727-1767.579Z" transform="translate(32.448 52.364)" fill="#fff"/>
    <path id="Path_196" data-name="Path 196" d="M7076.955-1863.613a5.555,5.555,0,0,0-3.129,1.843,10.714,10.714,0,0,0-1.086,1.349c-3.578,5.2-3.531,12.8.01,16.512a4.384,4.384,0,0,0,3.7,1.592,6.448,6.448,0,0,0,3.336-2.106,14.163,14.163,0,0,0,1.164-1.437c3.746-5.266,3.887-12.656.186-16.182A5.089,5.089,0,0,0,7076.955-1863.613Z" transform="translate(18.8 36.949)" fill="#fff"/>
    <path id="Path_197" data-name="Path 197" d="M7144.191-1876.83a10.045,10.045,0,0,0-6.107,2.9c-.311.3-.627.629-.928.97-4.646,5.344-5.041,14.2-.939,18.5a7.152,7.152,0,0,0,5.971,2.234,11.554,11.554,0,0,0,6.857-3.368c.213-.206.438-.43.643-.654,4.867-5.239,5.506-13.58,1.236-17.94A8.449,8.449,0,0,0,7144.191-1876.83Z" transform="translate(28.965 34.83)" fill="#fff"/>
    <path id="Path_198" data-name="Path 198" d="M7110.164-1871.14a8.245,8.245,0,0,0-4.607,2.486,13.61,13.61,0,0,0-1.127,1.281c-4.189,5.433-4.326,13.976-.4,17.861a5.672,5.672,0,0,0,4.859,1.7,9.5,9.5,0,0,0,5.318-2.932c.348-.356.691-.741,1.006-1.133,4.445-5.575,4.674-13.305.391-17.307A6.774,6.774,0,0,0,7110.164-1871.14Z" transform="translate(23.794 35.741)" fill="#fff"/>
    <path id="Path_199" data-name="Path 199" d="M7010.811-1882.963a3.806,3.806,0,0,0-.75-.542c-.041.076-.086.157-.129.247-1.678,3.41-.793,8.564,1.848,11.024a5.427,5.427,0,0,0,.443.367c.035-.057.068-.121.1-.186C7014.174-1875.42,7013.479-1880.625,7010.811-1882.963Z" transform="translate(9.007 33.762)" fill="#fff"/>
    <path id="Path_200" data-name="Path 200" d="M7277.623-1807.228c-4.086-5.464-11.836-6.03-17.961-.836l-.018.011c-5.891,5.29-7.133,14.282-2.82,19.895a10.735,10.735,0,0,0,7.918,4.259,13.836,13.836,0,0,0,9.836-3.607c.07-.062.139-.12.207-.184C7280.57-1792.82,7281.871-1801.531,7277.623-1807.228Z" transform="translate(48.368 45.297)" fill="#fff"/>
    <path id="Path_201" data-name="Path 201" d="M7232.324-1776.11c-3.084-.02-6.268,1.451-9.258,4.483l-.016.017c-5.467,5.809-6.666,14.971-2.727,20.207a8.525,8.525,0,0,0,7.105,3.414,13.972,13.972,0,0,0,9.67-4.6c.029-.027.057-.06.088-.09,5.408-5.718,6.58-14.212,2.605-19.519A9.308,9.308,0,0,0,7232.324-1776.11Z" transform="translate(42.55 51.004)" fill="#fff"/>
    <path id="Path_202" data-name="Path 202" d="M7199.9-1773.208a12.761,12.761,0,0,0-8.3,4.432c-.131.151-.264.3-.393.451-5.227,6.1-6.332,15.857-2.414,20.667a7.454,7.454,0,0,0,6.625,2.733,13.922,13.922,0,0,0,8.846-4.947c.113-.125.219-.252.328-.378,5.154-6.135,6.176-15.213,2.186-20.035A8.008,8.008,0,0,0,7199.9-1773.208Z" transform="translate(37.482 51.467)" fill="#fff"/>
    <path id="Path_203" data-name="Path 203" d="M7269.98-1818.411a13.939,13.939,0,0,0,9.945-3.112l.082-.064c6.105-4.882,7.705-13.249,3.559-19.16a11.913,11.913,0,0,0-8.428-5.106,13.4,13.4,0,0,0-9.848,3.093l-.014.008c-6.145,4.986-7.658,14.125-3.379,19.839A11.258,11.258,0,0,0,7269.98-1818.411Z" transform="translate(49.208 39.795)" fill="#fff"/>
    <path id="Path_204" data-name="Path 204" d="M7142.133-1839.845a10.313,10.313,0,0,0-6.152,3.232,16.2,16.2,0,0,0-1.162,1.328c-4.615,5.868-5.326,14.9-1.609,19.221a6.144,6.144,0,0,0,5.52,2.148,11.84,11.84,0,0,0,7-3.807c.3-.312.586-.633.867-.976,4.955-5.989,5.717-14.365,1.588-18.814A7.117,7.117,0,0,0,7142.133-1839.845Z" transform="translate(28.556 40.765)" fill="#fff"/>
    <path id="Path_205" data-name="Path 205" d="M7216.719-1843.659a9.606,9.606,0,0,0-7.535-3.693,12.592,12.592,0,0,0-8.355,3.428l-.584.544c-5.711,5.6-6.924,14.54-2.8,19.771a8.763,8.763,0,0,0,7.049,3.378,13.543,13.543,0,0,0,8.922-3.788c.137-.13.277-.259.422-.39C7219.625-1829.993,7220.939-1838.389,7216.719-1843.659Z" transform="translate(38.854 39.567)" fill="#fff"/>
    <path id="Path_206" data-name="Path 206" d="M7204.652-1811.088a12.646,12.646,0,0,0-8.389,3.847l-.5.5c-5.67,6-6.883,15.211-2.768,20.333a8.03,8.03,0,0,0,6.826,3.133,13.482,13.482,0,0,0,8.721-4.3c.111-.112.223-.227.332-.34,5.627-5.9,6.957-14.735,2.883-19.879A8.637,8.637,0,0,0,7204.652-1811.088Z" transform="translate(38.145 45.388)" fill="#fff"/>
    <path id="Path_207" data-name="Path 207" d="M7250.416-1843.29a10.547,10.547,0,0,0-7.973-4.317,13.365,13.365,0,0,0-9.561,3.326l-.01.009c-5.922,5.13-7.35,14.222-3.221,19.741a10.346,10.346,0,0,0,7.852,4.17,13.7,13.7,0,0,0,9.51-3.437c.023-.017.047-.039.068-.057C7253-1828.9,7254.541-1837.564,7250.416-1843.29Z" transform="translate(44.042 39.521)" fill="#fff"/>
    <path id="Path_208" data-name="Path 208" d="M7316.049-1836.913a12.817,12.817,0,0,0-8.705-5.342,13.409,13.409,0,0,0-10.094,2.734c-.016.009-.016.008-.02.013-6.072,4.771-7.494,13.876-3.137,19.8,4.172,5.694,12.674,6.7,18.592,2.286l.029-.019A14.238,14.238,0,0,0,7316.049-1836.913Z" transform="translate(54.36 40.363)" fill="#fff"/>
    <path id="Path_209" data-name="Path 209" d="M7348.633-1831.573a13.265,13.265,0,0,0-8.779-5.649,13.656,13.656,0,0,0-10.465,2.384,14.223,14.223,0,0,0-3.205,19.678,13.533,13.533,0,0,0,18.9,2.933l.072-.05A14.181,14.181,0,0,0,7348.633-1831.573Z" transform="translate(59.5 41.157)" fill="#fff"/>
    <path id="Path_210" data-name="Path 210" d="M7182.645-1841.567a8.5,8.5,0,0,0-6.959-3.158,11.543,11.543,0,0,0-7.365,3.476c-.262.248-.529.521-.785.8-5.27,5.709-6.3,14.983-2.32,19.726a7.372,7.372,0,0,0,6.32,2.642,13.143,13.143,0,0,0,8.17-3.976c.141-.138.283-.278.42-.417C7185.611-1828.167,7186.8-1836.664,7182.645-1841.567Z" transform="translate(33.687 39.986)" fill="#fff"/>
    <path id="Path_211" data-name="Path 211" d="M7380.844-1825.78a13.965,13.965,0,0,0-19.42-3.331,13.751,13.751,0,0,0-3.311,19.163,13.7,13.7,0,0,0,19.334,3.583l.01-.006a13.791,13.791,0,0,0,5.7-9.032A13.835,13.835,0,0,0,7380.844-1825.78Z" transform="translate(64.641 42.088)" fill="#fff"/>
    <path id="Path_212" data-name="Path 212" d="M7139.047-1800.78a10.711,10.711,0,0,0-6.246,3.794q-.562.629-1.1,1.344c-4.779,6.391-5.707,15.642-2.1,20.018a5.215,5.215,0,0,0,4.992,1.942c2.35-.333,4.846-1.928,7.059-4.471.34-.4.691-.829,1.025-1.276,4.8-6.489,5.627-14.855,1.783-19.217A5.942,5.942,0,0,0,7139.047-1800.78Z" transform="translate(28.006 47.034)" fill="#fff"/>
    <path id="Path_213" data-name="Path 213" d="M7171.867-1807.146a11.971,11.971,0,0,0-7.436,3.973c-.283.293-.555.6-.83.921-5.279,6.3-6.342,15.449-2.451,20.208a6.544,6.544,0,0,0,5.928,2.471c2.727-.261,5.578-1.885,8.063-4.546.213-.239.43-.476.639-.715,5.211-6.158,6.352-14.854,2.441-19.558A7.25,7.25,0,0,0,7171.867-1807.146Z" transform="translate(33.047 46.018)" fill="#fff"/>
    <path id="Path_214" data-name="Path 214" d="M7291.73-1805.851c-5.937,4.806-7.4,13.905-3.225,19.741a12.018,12.018,0,0,0,8.457,4.919,13.667,13.667,0,0,0,10.16-2.935c.055-.044.107-.087.16-.131a14.434,14.434,0,0,0,2.824-19.412C7305.854-1809.632,7297.828-1810.7,7291.73-1805.851Z" transform="translate(53.486 45.739)" fill="#fff"/>
    <path id="Path_215" data-name="Path 215" d="M7333.971-1804.325a13.222,13.222,0,0,0-10.258,2.463,14.2,14.2,0,0,0-5.477,9.335,13.991,13.991,0,0,0,2.383,10.275,13.539,13.539,0,0,0,19.1,2.787l.02-.015a14.327,14.327,0,0,0,2.988-19.217A13.222,13.222,0,0,0,7333.971-1804.325Z" transform="translate(58.617 46.442)" fill="#fff"/>
    <path id="Path_216" data-name="Path 216" d="M7098.3-1651.608c-1.576.556-3.309,2.352-4.752,4.958q-.445.8-.838,1.692c-3.457,7.648-3.287,16.685-.852,19.493a2.272,2.272,0,0,0,2.771.634c1.842-.69,3.893-2.949,5.5-5.991.219-.418.428-.849.639-1.3,3.162-6.959,3.51-15.374.711-18.573A2.75,2.75,0,0,0,7098.3-1651.608Z" transform="translate(22.009 70.964)" fill="#fff"/>
    <path id="Path_217" data-name="Path 217" d="M7072.674-1918.089a5.369,5.369,0,0,0,3.1-1.612,7.511,7.511,0,0,0,.723-.837c3.146-4.2,1.885-10.658-2.857-13.81a8.127,8.127,0,0,0-5.439-1.525,4.4,4.4,0,0,0-2.58,1.319,6.134,6.134,0,0,0-.7.86c-2.852,4.121-1.285,11.016,3.07,14.212A6.693,6.693,0,0,0,7072.674-1918.089Z" transform="translate(17.741 25.347)" fill="#fff"/>
    <path id="Path_218" data-name="Path 218" d="M7215.791-1924.479a12.659,12.659,0,0,0,8.324-2.754c.063-.058.141-.117.205-.175a11.622,11.622,0,0,0,.453-17.576,14.243,14.243,0,0,0-9.373-3.791,12.6,12.6,0,0,0-8.475,2.908.17.17,0,0,1-.031.03c-5.143,4.6-5.027,12.458.074,17.489A13.214,13.214,0,0,0,7215.791-1924.479Z" transform="translate(40.155 23.284)" fill="#fff"/>
    <path id="Path_219" data-name="Path 219" d="M6987.594-1954.13a3.024,3.024,0,0,0-.33-.156c-.232,2.265,1.5,5.6,4.633,7.4a.268.268,0,0,1,.08.048C6992.3-1949.119,6990.609-1952.573,6987.594-1954.13Z" transform="translate(5.5 22.398)" fill="#fff"/>
    <path id="Path_220" data-name="Path 220" d="M7104.68-1941.8a7.333,7.333,0,0,0-4.4,2.028,8.658,8.658,0,0,0-.807.893c-3.533,4.563-2.271,11.56,2.58,15.286a8.715,8.715,0,0,0,6.094,1.969,7.9,7.9,0,0,0,4.582-2.218,10.355,10.355,0,0,0,.91-.969,10.469,10.469,0,0,0-2.143-15.068A9.994,9.994,0,0,0,7104.68-1941.8Z" transform="translate(23.195 24.396)" fill="#fff"/>
    <path id="Path_221" data-name="Path 221" d="M7024.971-1961.58c-2.049-1.087-3.594-1.182-4.258-.8a3.36,3.36,0,0,0-.482.695c-1.584,2.939.213,8.373,4.762,11a5.752,5.752,0,0,0,3.285.968,1.571,1.571,0,0,0,.764-.5,4.033,4.033,0,0,0,.518-.693C7031.559-1954.28,7029.52-1959.171,7024.971-1961.58Z" transform="translate(10.707 21.066)" fill="#fff"/>
    <path id="Path_222" data-name="Path 222" d="M7141.611-1946.061a9.477,9.477,0,0,0-5.812,2.451,8.947,8.947,0,0,0-.764.77c-4.133,4.664-3.348,11.908,1.559,16.155a10.3,10.3,0,0,0,7.266,2.606,10.08,10.08,0,0,0,6.266-2.641v0c.227-.2.449-.412.656-.627a10.665,10.665,0,0,0-1.146-16.081A11.858,11.858,0,0,0,7141.611-1946.061Z" transform="translate(28.8 23.715)" fill="#fff"/>
    <path id="Path_223" data-name="Path 223" d="M7171.961-1928.131a11.8,11.8,0,0,0,8.041,3.047,11.539,11.539,0,0,0,7.352-2.791c.15-.135.307-.271.457-.406a11.1,11.1,0,0,0-.232-16.844,13.144,13.144,0,0,0-8.891-3.3,11.081,11.081,0,0,0-7.111,2.65c-.189.167-.379.346-.562.525C7166.2-1940.444,7166.721-1932.769,7171.961-1928.131Z" transform="translate(34.472 23.34)" fill="#fff"/>
    <path id="Path_224" data-name="Path 224" d="M7044.713-1854.557a2.756,2.756,0,0,0-1.129.858,9.414,9.414,0,0,0-1.186,1.666c-2.7,4.69-2.482,11.606.4,14.767a2.668,2.668,0,0,0,2.092,1.09,3.759,3.759,0,0,0,1.645-1.221s0,0,.008,0a11.276,11.276,0,0,0,1.105-1.5c3.037-4.91,2.883-11.385-.434-14.485A3.446,3.446,0,0,0,7044.713-1854.557Z" transform="translate(14.052 38.408)" fill="#fff"/>
    <path id="Path_225" data-name="Path 225" d="M7009.2-1633.335a22.03,22.03,0,0,0,1.135-10.347A26.685,26.685,0,0,0,7009.2-1633.335Z" transform="translate(9.009 72.265)" fill="#fff"/>
    <path id="Path_226" data-name="Path 226" d="M7096.25-1974.989a6.466,6.466,0,0,0-3.93,1.746,6.307,6.307,0,0,0-.672.778c-2.943,4.092-.875,10.65,4.236,14.073a10.8,10.8,0,0,0,6.926,1.883,7.465,7.465,0,0,0,4.551-2.005,7.77,7.77,0,0,0,.588-.637c3.391-4.109,1.67-10.492-3.957-13.91A12.753,12.753,0,0,0,7096.25-1974.989Z" transform="translate(22.049 19.066)" fill="#fff"/>
    <path id="Path_227" data-name="Path 227" d="M7065.158-1953.366a4.292,4.292,0,0,0,2.621-1.352,6.512,6.512,0,0,0,.617-.723c2.807-3.846,1.127-9.437-3.91-12.457a10.467,10.467,0,0,0-6.316-1.647,3.735,3.735,0,0,0-2.309,1.127,5,5,0,0,0-.477.58c-2.691,3.878-.584,9.781,4.4,12.94A8.6,8.6,0,0,0,7065.158-1953.366Z" transform="translate(16.251 19.941)" fill="#fff"/>
    <path id="Path_228" data-name="Path 228" d="M7135.346-1978.906a9.248,9.248,0,0,0-5.65,2.25c-.156.15-.307.293-.451.459-3.8,4.245-2.016,11.414,3.6,15.369a12.7,12.7,0,0,0,8.025,2.4,9.626,9.626,0,0,0,5.93-2.413c.16-.156.316-.314.475-.465,3.994-4.167,2.658-11.4-3.006-15.178A14.572,14.572,0,0,0,7135.346-1978.906Z" transform="translate(27.976 18.441)" fill="#fff"/>
    <path id="Path_229" data-name="Path 229" d="M7242.863-1854.976a13.757,13.757,0,0,0,9.332-3.063c.119-.1.25-.2.373-.3,5.779-4.86,7.063-13.508,2.688-18.956a11.778,11.778,0,0,0-8.461-4.319,13.256,13.256,0,0,0-9.18,2.875c-.2.16-.4.324-.582.488-5.748,5.088-6.662,13.75-2.174,19.23A11.1,11.1,0,0,0,7242.863-1854.976Z" transform="translate(44.8 34.06)" fill="#fff"/>
    <path id="Path_230" data-name="Path 230" d="M7040.824-1877.437a3.679,3.679,0,0,0,2.605,1.236,2.939,2.939,0,0,0,1.215-.882,8.883,8.883,0,0,0,.936-1.211c2.76-4.285,2.176-10.359-1.385-13.273a4.4,4.4,0,0,0-3.105-1.251,2.15,2.15,0,0,0-1,.682,6.364,6.364,0,0,0-.807,1.081C7036.7-1886.8,7037.441-1880.556,7040.824-1877.437Z" transform="translate(13.607 32.264)" fill="#fff"/>
    <path id="Path_231" data-name="Path 231" d="M7275.625-1852.22a13.957,13.957,0,0,0,9.891-2.786c.037-.028.068-.048.105-.075,6.262-4.75,7.7-13.1,3.168-19.087a12.576,12.576,0,0,0-8.621-4.958,13.543,13.543,0,0,0-9.727,2.839l0,0c-6.117,4.739-7.5,13.657-3.105,19.41A11.976,11.976,0,0,0,7275.625-1852.22Z" transform="translate(50.059 34.452)" fill="#fff"/>
    <path id="Path_232" data-name="Path 232" d="M7072.01-1882.7a5.394,5.394,0,0,0,4.152,1.507,5.9,5.9,0,0,0,3.186-1.813l0-.006a10.2,10.2,0,0,0,.953-1.118c3.486-4.689,3-11.911-1.127-15.176a6.4,6.4,0,0,0-4.738-1.449,5.321,5.321,0,0,0-3.039,1.612,8.391,8.391,0,0,0-.836,1C7067.266-1893.448,7068-1886.229,7072.01-1882.7Z" transform="translate(18.545 30.985)" fill="#fff"/>
    <path id="Path_233" data-name="Path 233" d="M7109.01-1907.313a7.511,7.511,0,0,0-4.461,2.206,10.907,10.907,0,0,0-.957,1.052c-3.979,5-3.613,12.617.65,16.607a6.846,6.846,0,0,0,5.387,1.922,8.723,8.723,0,0,0,5.135-2.573,12.109,12.109,0,0,0,.9-.971c4.236-5.056,4.092-12.254-.445-16.115A8.335,8.335,0,0,0,7109.01-1907.313Z" transform="translate(23.736 29.934)" fill="#fff"/>
    <path id="Path_234" data-name="Path 234" d="M7175.768-1855a12.755,12.755,0,0,0,7.977-3.428c.238-.219.48-.447.713-.682,5.311-5.418,6.023-13.659,1.434-18.448a9.7,9.7,0,0,0-7.416-3.034,11.432,11.432,0,0,0-7.191,3.051c-.34.305-.674.633-1,.983-5.016,5.454-5.59,14.078-1.379,18.741A8.63,8.63,0,0,0,7175.768-1855Z" transform="translate(34.217 34.229)" fill="#fff"/>
    <path id="Path_235" data-name="Path 235" d="M7308.432-1847.844a13.744,13.744,0,0,0,10.088-2.386c.086-.056.156-.114.232-.171a13.981,13.981,0,0,0,3.281-19.1,13.337,13.337,0,0,0-8.934-5.511,13.623,13.623,0,0,0-10.166,2.441,14.263,14.263,0,0,0-3.191,19.516A13.025,13.025,0,0,0,7308.432-1847.844Z" transform="translate(55.266 35.098)" fill="#fff"/>
    <path id="Path_236" data-name="Path 236" d="M7247.52-1888.859a13.6,13.6,0,0,0,9.3-2.794.953.953,0,0,0,.1-.07,12.929,12.929,0,0,0,2.176-18.5,13.085,13.085,0,0,0-9.027-4.5,13.338,13.338,0,0,0-9.387,2.879c-.01.011-.01.007-.021.018a13.3,13.3,0,0,0-1.627,18.756A12.333,12.333,0,0,0,7247.52-1888.859Z" transform="translate(45.423 28.744)" fill="#fff"/>
    <path id="Path_237" data-name="Path 237" d="M7038.383-1913.837a2.29,2.29,0,0,0,.98-.667,5.946,5.946,0,0,0,.717-.923c2.311-3.662.984-9.45-2.893-12.128a5.614,5.614,0,0,0-3.689-1.169,1.631,1.631,0,0,0-1,.587,4.182,4.182,0,0,0-.607.846c-2.082,3.749-.455,9.483,3.371,12.289A4.905,4.905,0,0,0,7038.383-1913.837Z" transform="translate(12.524 26.498)" fill="#fff"/>
    <path id="Path_238" data-name="Path 238" d="M7213.328-1890.586a13.217,13.217,0,0,0,8.57-3.053c.178-.152.357-.3.537-.457,5.531-4.9,6.2-12.962,1.338-18.039a12.246,12.246,0,0,0-8.566-3.771,12.574,12.574,0,0,0-8.236,2.872c-.2.17-.393.343-.6.512a12.929,12.929,0,0,0-1.01,18.339A11.256,11.256,0,0,0,7213.328-1890.586Z" transform="translate(39.985 28.56)" fill="#fff"/>
    <path id="Path_239" data-name="Path 239" d="M7172.656-1912.186c-.266.232-.521.469-.773.722-4.9,4.98-5.086,13.187-.572,17.89a9.833,9.833,0,0,0,7.291,2.985,12.5,12.5,0,0,0,7.895-3.107c.227-.19.449-.4.658-.6,5.2-5.06,5.621-12.673.793-17.41a11.256,11.256,0,0,0-8.131-3.317A11.231,11.231,0,0,0,7172.656-1912.186Z" transform="translate(34.53 28.701)" fill="#fff"/>
    <path id="Path_240" data-name="Path 240" d="M7001.8-1919.618a5.938,5.938,0,0,0-.773-.437c-.9,2.589.338,7.27,3.23,9.5a3.946,3.946,0,0,0,.7.457C7006.348-1913.06,7004.885-1917.579,7001.8-1919.618Z" transform="translate(7.669 27.894)" fill="#fff"/>
    <path id="Path_241" data-name="Path 241" d="M7151.486-1909.544a9.95,9.95,0,0,0-7.277-2.6,9.814,9.814,0,0,0-5.941,2.647c-.27.247-.537.516-.789.793-4.51,4.958-4.373,13.365.141,17.594a8.622,8.622,0,0,0,6.531,2.327,11.154,11.154,0,0,0,6.648-2.978c.23-.209.459-.434.678-.665C7156.256-1897.437,7156.344-1905.251,7151.486-1909.544Z" transform="translate(29.089 29.16)" fill="#fff"/>
    <path id="Path_242" data-name="Path 242" d="M7209.332-1855.977a13.463,13.463,0,0,0,8.764-3.364c.18-.159.359-.317.543-.474,5.732-5.267,6.768-13.409,2.215-18.63a10.749,10.749,0,0,0-7.953-3.718,12.65,12.65,0,0,0-8.277,3.114c-.227.188-.443.378-.656.583-5.629,5.312-6.488,13.89-2.057,19.047A9.849,9.849,0,0,0,7209.332-1855.977Z" transform="translate(39.511 33.977)" fill="#fff"/>
    <path id="Path_243" data-name="Path 243" d="M7015.232-1830.8a8.05,8.05,0,0,0,.416-.695c2.164-4,1.912-9.635-.561-12.1a4.309,4.309,0,0,0-.414-.36c-.109.187-.234.4-.371.679-2,4-1.617,9.774.777,12.317C7015.139-1830.9,7015.184-1830.849,7015.232-1830.8Z" transform="translate(9.639 40.112)" fill="#fff"/>
    <path id="Path_244" data-name="Path 244" d="M7135.6-1759.319c-2.219.352-4.559,1.926-6.564,4.438-.314.4-.623.82-.92,1.262-4.625,6.842-5.461,16.073-1.924,20.373a4.775,4.775,0,0,0,4.8,1.829c2.25-.441,4.637-2.217,6.775-5.006.236-.307.463-.621.691-.95,4.615-6.713,5.631-15.561,2.2-19.924A5.124,5.124,0,0,0,7135.6-1759.319Z" transform="translate(27.458 53.687)" fill="#fff"/>
    <path id="Path_245" data-name="Path 245" d="M7282.656-1735.652a15.3,15.3,0,0,0-4.451,10.06,13.45,13.45,0,0,0,2.9,9.319c4.414,5.364,12.629,5.591,17.914.694.133-.125.26-.249.391-.375a14.322,14.322,0,0,0,4.064-9.289,14.019,14.019,0,0,0-2.76-9.423C7296.344-1740.358,7288.111-1740.933,7282.656-1735.652Z" transform="translate(52.211 56.915)" fill="#fff"/>
    <path id="Path_246" data-name="Path 246" d="M7351.025-1763.267a13.021,13.021,0,0,0-4.91,9.153,13.758,13.758,0,0,0,2.9,9.9c4.748,6.017,13.656,7.271,19.381,2.851.057-.043.105-.084.16-.125a12.5,12.5,0,0,0,4.648-8.6,14.375,14.375,0,0,0-2.937-10.075C7365.584-1766.4,7357.262-1767.883,7351.025-1763.267Z" transform="translate(63.107 52.633)" fill="#fff"/>
    <path id="Path_247" data-name="Path 247" d="M7314.85-1733.233a13.419,13.419,0,0,0-4.355,9.3,13.807,13.807,0,0,0,3.121,9.419,13,13,0,0,0,18.551,1.819c.131-.116.262-.235.391-.35a13.064,13.064,0,0,0,4.1-8.979,14.137,14.137,0,0,0-3.064-9.479A12.73,12.73,0,0,0,7314.85-1733.233Z" transform="translate(57.395 57.353)" fill="#fff"/>
    <path id="Path_248" data-name="Path 248" d="M7225.256-1698.83c-3.094.276-6.15,2.2-8.621,5.507a19.931,19.931,0,0,0-3.9,11.806,11.741,11.741,0,0,0,2.7,7.929c4.01,4.3,11.221,2.65,15.785-3.348,0,0,.26-.353.27-.361,4.332-5.988,4.744-13.821.914-18.42A8.184,8.184,0,0,0,7225.256-1698.83Z" transform="translate(41.704 63.406)" fill="#fff"/>
    <path id="Path_249" data-name="Path 249" d="M7280.588-1699.148c-.117.125-.229.248-.348.373a14.9,14.9,0,0,0-3.773,9.889,12.7,12.7,0,0,0,3.033,8.4c4.539,5.276,12.646,5.147,17.684-.061.17-.186.338-.371.512-.557a13.831,13.831,0,0,0,3.424-9.064,13.4,13.4,0,0,0-3.1-8.588C7293.408-1704.33,7285.756-1704.59,7280.588-1699.148Z" transform="translate(51.935 62.728)" fill="#fff"/>
    <path id="Path_250" data-name="Path 250" d="M7248.182-1697.553a17.059,17.059,0,0,0-3.785,10.7,12.589,12.589,0,0,0,3.037,8.423c4.393,4.809,12.109,3.852,16.877-1.871l.215-.263a16.161,16.161,0,0,0,3.395-9.978,12.737,12.737,0,0,0-2.939-8.433C7260.625-1703.928,7252.924-1703.384,7248.182-1697.553Z" transform="translate(46.788 62.848)" fill="#fff"/>
    <path id="Path_251" data-name="Path 251" d="M7093.389-1990.53a6.3,6.3,0,0,0,3.926-1.771,4.981,4.981,0,0,0,.479-.538c2.947-3.677.559-9.6-5.311-12.662a15.044,15.044,0,0,0-8.391-1.762,6.2,6.2,0,0,0-4,1.913c-.029.028-.061.069-.094.1-2.814,3.667-.111,9.491,5.682,12.776A13.645,13.645,0,0,0,7093.389-1990.53Z" transform="translate(20.211 13.882)" fill="#fff"/>
    <path id="Path_252" data-name="Path 252" d="M7347.668-1729.307a12.236,12.236,0,0,0-4.279,8.868,13.861,13.861,0,0,0,3.424,9.487c5.148,6.063,13.67,7.043,19.3,2.375.1-.083.189-.165.291-.248a11.7,11.7,0,0,0,3.926-8.494,14.389,14.389,0,0,0-3.418-9.645C7361.986-1732.918,7353.465-1734.1,7347.668-1729.307Z" transform="translate(62.679 58.042)" fill="#fff"/>
    <path id="Path_253" data-name="Path 253" d="M7163.943-1725.851c-2.5.438-5.076,2.269-7.246,5.2-.238.323-.488.672-.717,1.025-4.51,6.87-5.246,16.387-1.668,20.544a5.353,5.353,0,0,0,5.377,1.7c2.826-.569,5.752-2.777,8.049-5.993.145-.217.295-.435.449-.652,4.461-6.8,5.148-15.341,1.475-19.672A5.879,5.879,0,0,0,7163.943-1725.851Z" transform="translate(31.959 59.057)" fill="#fff"/>
    <path id="Path_254" data-name="Path 254" d="M7196.074-1733.577c-2.834.33-5.732,2.15-8.145,5.169-.131.174-.271.353-.408.53-4.93,6.6-5.777,15.9-1.941,20.473a6.626,6.626,0,0,0,6.25,2.321c3.117-.423,6.324-2.563,8.861-5.842l.037-.043c5-6.534,5.818-15.2,1.8-19.975A7.083,7.083,0,0,0,7196.074-1733.577Z" transform="translate(36.959 57.824)" fill="#fff"/>
    <path id="Path_255" data-name="Path 255" d="M7070.6-2025.835a15.723,15.723,0,0,0,8.254,1.776,5.574,5.574,0,0,0,3.588-1.578c.076-.084.146-.171.219-.256,2.574-3.184-.01-8.129-5.957-10.99a18.215,18.215,0,0,0-9.436-1.9,4.983,4.983,0,0,0-3.383,1.54c-.008.009-.016.012-.027.025C7061.357-2034.028,7064.541-2028.825,7070.6-2025.835Z" transform="translate(17.666 8.822)" fill="#fff"/>
    <path id="Path_256" data-name="Path 256" d="M7010.938-2054.792a1.815,1.815,0,0,0,1.266-.583c.049-.076.1-.155.146-.23,1.072-1.977-1.746-5.43-7.793-7.4a14.542,14.542,0,0,0-6.371-.871,1.211,1.211,0,0,0-.875.507c-.037.048-.076.1-.117.152-.785,1.611,1.918,5.409,7.656,7.507A13.274,13.274,0,0,0,7010.938-2054.792Z" transform="translate(7.077 4.79)" fill="#fff"/>
    <path id="Path_257" data-name="Path 257" d="M6955.287-2056.051a13.807,13.807,0,0,0-2.32-.531c.5,1.185,2.584,3.107,6.525,4.369a16.878,16.878,0,0,0,1.777.467C6960.887-2052.933,6958.881-2054.917,6955.287-2056.051Z" transform="translate(-0.001 5.976)" fill="#fff"/>
    <path id="Path_258" data-name="Path 258" d="M6991.047-2018.134c.031-.048.066-.1.1-.148.818-1.558-1.328-5.225-6.539-7.174a15.73,15.73,0,0,0-4-.953c-.648,1.682,2.111,5.66,7.014,7.539a11.583,11.583,0,0,0,3.4.772Z" transform="translate(4.422 10.819)" fill="#fff"/>
    <path id="Path_259" data-name="Path 259" d="M6974.793-2093a19.1,19.1,0,0,0-6.582-.765c-.281.614,1.7,3.247,6.879,4.925,3.539,1.152,5.938,1,6.324.851l.008-.009.006-.012C6981.834-2088.752,6979.65-2091.542,6974.793-2093Z" transform="translate(2.441 0.001)" fill="#fff"/>
    <path id="Path_260" data-name="Path 260" d="M7097.828-1598.582c-1.6.717-3.283,2.771-4.615,5.663-.209.453-.418.934-.609,1.429-2.818,7.278-2.52,15.758-.4,18.061a1.815,1.815,0,0,0,2.326.355c1.793-.832,3.742-3.363,5.236-6.738.105-.251.215-.5.318-.75,2.963-7.274,2.648-15.208.357-17.568A2.145,2.145,0,0,0,7097.828-1598.582Z" transform="translate(22.087 79.466)" fill="#fff"/>
    <path id="Path_261" data-name="Path 261" d="M7013.035-1984.378a.574.574,0,0,0,.42-.254c.088-.123.172-.248.26-.369,1.287-2.407-.912-6.8-5.926-9.05a9.817,9.817,0,0,0-4.426-1.045c-.109.149-.215.3-.322.451-1.1,2.358,1.6,7.128,6.207,9.377A7.186,7.186,0,0,0,7013.035-1984.378Z" transform="translate(7.998 15.845)" fill="#fff"/>
    <path id="Path_262" data-name="Path 262" d="M7124.867-1994.56a15.128,15.128,0,0,0,8.775,2.409,8.793,8.793,0,0,0,5.617-2.212c.072-.072.148-.146.221-.219,3.863-3.962,2.254-10.044-3.9-13.823a17.282,17.282,0,0,0-9.963-2.654,8.294,8.294,0,0,0-5.525,2.382c-.016.016-.031.032-.045.048C7116.541-2004.683,7118.818-1998.388,7124.867-1994.56Z" transform="translate(26.557 13.278)" fill="#fff"/>
    <path id="Path_263" data-name="Path 263" d="M7049.783-2000.432a12.746,12.746,0,0,0-6.816-1.446,3,3,0,0,0-1.914.942,3.52,3.52,0,0,0-.385.5c-1.82,2.89.732,8.646,6.457,11.5a10.351,10.351,0,0,0,5.8,1.2,3.836,3.836,0,0,0,2.377-1.137,4.327,4.327,0,0,0,.43-.546C7057.9-1992.746,7055.256-1997.806,7049.783-2000.432Z" transform="translate(13.987 14.747)" fill="#fff"/>
    <path id="Path_264" data-name="Path 264" d="M7185.016-1685.892l0,.009c-4.375,6.673-4.781,16.206-.906,20.137,3.646,3.712,10.391,1.353,14.475-4.822l.121-.19c4.172-6.472,4.52-14.936.744-19.11C7195.754-1693.933,7189.5-1692.439,7185.016-1685.892Z" transform="translate(36.681 64.488)" fill="#fff"/>
    <path id="Path_265" data-name="Path 265" d="M7028.906-2022.512a12.721,12.721,0,0,0,6.295,1.1,2.938,2.938,0,0,0,1.875-.88c.068-.1.148-.2.225-.295,1.563-2.417-1.193-7.118-7.285-9.536a14.739,14.739,0,0,0-7.133-1.145,2.216,2.216,0,0,0-1.559.789c-.051.057-.1.115-.143.172C7019.789-2029.909,7023.172-2024.941,7028.906-2022.512Z" transform="translate(10.901 9.705)" fill="#fff"/>
    <path id="Path_266" data-name="Path 266" d="M6968.268-1986.236a9.334,9.334,0,0,0,3.457,3.644A8.765,8.765,0,0,0,6968.268-1986.236Z" transform="translate(2.455 17.269)" fill="#fff"/>
    <path id="Path_267" data-name="Path 267" d="M7250.717-1735.528c0,.008,0,0,0,.008-5.135,5.649-5.941,14.526-1.809,19.577,4.215,5.176,12.162,4.664,17.379-.886.053-.053.1-.1.146-.157a16.053,16.053,0,0,0,4.238-9.878,13.433,13.433,0,0,0-2.809-9.22C7263.621-1741.392,7256.164-1741.327,7250.717-1735.528Z" transform="translate(47.088 56.806)" fill="#fff"/>
    <path id="Path_268" data-name="Path 268" d="M7103.422-1748.327a9.57,9.57,0,0,0-5.137,3.877c-.33.435-.645.9-.953,1.4-4.07,6.607-4.826,16.313-1.631,20.189a3.352,3.352,0,0,0,3.6,1.277c1.775-.425,3.789-2.075,5.539-4.5v0c.291-.408.578-.834.854-1.287,4.074-6.616,4.916-15.877,1.7-19.6A3.888,3.888,0,0,0,7103.422-1748.327Z" transform="translate(22.596 55.446)" fill="#fff"/>
    <path id="Path_269" data-name="Path 269" d="M7014.48-1753.029c-2.115,4.329-2.506,11.275-.84,14.1a12.081,12.081,0,0,0,.566-1.072c2.328-4.875,2.344-11.653.711-13.834C7014.789-1753.623,7014.641-1753.354,7014.48-1753.029Z" transform="translate(9.574 54.581)" fill="#fff"/>
    <path id="Path_270" data-name="Path 270" d="M7044.086-1768.54a3.636,3.636,0,0,0-1.537,1.365,12.624,12.624,0,0,0-1.1,1.715c-3.09,5.677-3.574,13.468-1.1,16.908.678.943,1.271,1.052,1.424,1.019s.744-.4,1.631-1.592a14.958,14.958,0,0,0,1.068-1.669c3.209-5.722,3.848-13.3,1.361-16.651C7045.084-1768.441,7044.381-1768.6,7044.086-1768.54Z" transform="translate(13.775 52.218)" fill="#fff"/>
    <path id="Path_271" data-name="Path 271" d="M7074.713-1781.1a6.573,6.573,0,0,0-3.418,2.5,14.471,14.471,0,0,0-1.2,1.736c-3.547,6.009-4.086,14.885-1.174,18.5a2.729,2.729,0,0,0,2.734,1.156,7.638,7.638,0,0,0,3.793-2.962l.008,0a18.713,18.713,0,0,0,1.186-1.743c3.615-6.044,4.229-14.542,1.223-17.957A3.243,3.243,0,0,0,7074.713-1781.1Z" transform="translate(18.311 50.193)" fill="#fff"/>
    <path id="Path_272" data-name="Path 272" d="M7071.99-1735.067a6.8,6.8,0,0,0-3.2,2.819,19.543,19.543,0,0,0-1.334,2.175c-3.752,7.039-3.812,16.049-1.387,18.976a2.055,2.055,0,0,0,2.223.869c1.143-.323,2.541-1.615,3.852-3.536l0-.007c.369-.546.736-1.139,1.074-1.757,3.635-6.639,4.279-14.778,1.41-18.323A2.753,2.753,0,0,0,7071.99-1735.067Z" transform="translate(17.891 57.585)" fill="#fff"/>
    <path id="Path_273" data-name="Path 273" d="M7161.541-1681.952c-2.615.626-5.295,2.818-7.34,6.046-.145.241-.289.483-.436.724-4.1,7.07-4.477,16.417-.879,20.15a4.883,4.883,0,0,0,5.119,1.251c2.727-.78,5.516-3.293,7.672-6.834.111-.19.219-.378.334-.567,3.84-6.734,4.26-15.434.859-19.224A5.188,5.188,0,0,0,7161.541-1681.952Z" transform="translate(31.7 66.091)" fill="#fff"/>
    <path id="Path_274" data-name="Path 274" d="M7106.654-1792.018a8.949,8.949,0,0,0-4.967,3.331,17.216,17.216,0,0,0-1.285,1.713c-4.2,6.32-4.9,15.2-1.6,19.25a4.056,4.056,0,0,0,3.957,1.648c1.693-.31,3.621-1.7,5.412-3.895.42-.515.826-1.06,1.213-1.642,4.293-6.387,5.066-14.7,1.652-18.664A4.592,4.592,0,0,0,7106.654-1792.018Z" transform="translate(23.077 48.44)" fill="#fff"/>
    <path id="Path_275" data-name="Path 275" d="M7076.738-1823.854a6.235,6.235,0,0,0-3.283,2.137,11.99,11.99,0,0,0-1.076,1.4c-3.781,5.68-4.193,13.815-.979,17.665a3.535,3.535,0,0,0,3.25,1.517c1.406-.244,2.793-1.65,3.5-2.467a16.033,16.033,0,0,0,1.256-1.659c3.809-5.719,4.27-13.722.92-17.22A3.986,3.986,0,0,0,7076.738-1823.854Z" transform="translate(18.665 43.33)" fill="#fff"/>
    <path id="Path_276" data-name="Path 276" d="M7109.127-1832.825a8.555,8.555,0,0,0-4.738,2.826,14.308,14.308,0,0,0-1.127,1.362c-4.346,5.847-5.018,14.485-1.555,18.757a4.6,4.6,0,0,0,4.332,1.792,9.863,9.863,0,0,0,5.615-3.423c.295-.324.58-.664.857-1.022,4.664-6.021,5.4-14.169,1.564-18.312A5.663,5.663,0,0,0,7109.127-1832.825Z" transform="translate(23.523 41.891)" fill="#fff"/>
    <path id="Path_277" data-name="Path 277" d="M7045.391-1813.255a3.244,3.244,0,0,0-1.285,1.07,12.02,12.02,0,0,0-1.252,1.83c-2.9,5.115-3.145,12.56-.566,15.854.732.943,1.42,1.094,1.672,1.049a4.347,4.347,0,0,0,1.727-1.453,13.867,13.867,0,0,0,1.279-1.867c3.07-5.282,3.336-12.1.537-15.286C7046.553-1813.15,7045.7-1813.308,7045.391-1813.255Z" transform="translate(14.053 45.039)" fill="#fff"/>
    <path id="Path_278" data-name="Path 278" d="M7015.945-1800.9a8.913,8.913,0,0,0-.449.8c-2.215,4.435-2.281,10.561-.145,13.325.158-.25.334-.556.518-.915,2.2-4.276,2.379-10.289.348-12.9A2.11,2.11,0,0,0,7015.945-1800.9Z" transform="translate(9.764 47.025)" fill="#fff"/>
    <path id="Path_279" data-name="Path 279" d="M7131.977-1715.191c-2.094.477-4.3,2.242-6.209,5-.279.4-.535.812-.8,1.249-4.174,6.958-4.887,16.96-1.543,20.758a4.092,4.092,0,0,0,4.357,1.226c2.4-.633,4.959-2.826,7.047-5.967.131-.206.258-.411.393-.616,4.23-6.865,4.975-15.882,1.566-19.921A4.687,4.687,0,0,0,7131.977-1715.191Z" transform="translate(27.026 60.764)" fill="#fff"/>
    <path id="Path_280" data-name="Path 280" d="M7228.3-1738.2c-3.221.116-6.521,1.825-9.287,5.026l-.01.014c-5.047,6.1-5.811,15.2-1.73,20.03s11.207,3.805,16.268-2.127l.082-.1c4.887-5.829,5.742-14.486,1.857-19.513A8.482,8.482,0,0,0,7228.3-1738.2Z" transform="translate(42.01 57.089)" fill="#fff"/>
    <path id="Path_281" data-name="Path 281" d="M7160.531-1635.93c-2.523.8-5.1,3.319-7.342,7.533a.3.3,0,0,0-.021.052c-3.533,7.055-3.639,15.563-.3,18.74a4.386,4.386,0,0,0,4.791.851c2.646-.984,5.322-3.837,7.354-7.769l.023-.042c3.459-6.764,3.68-14.83.436-18.2A4.558,4.558,0,0,0,7160.531-1635.93Z" transform="translate(31.703 73.465)" fill="#fff"/>
    <path id="Path_282" data-name="Path 282" d="M7198.1-1647.239c-3.607-3.744-9.926-1.526-13.77,5.113a22.028,22.028,0,0,0-2.986,12.021c.119,2.053.676,4.885,2.586,6.753,3.727,3.644,9.9.982,13.807-5.668.072-.12.137-.239.213-.359a20.986,20.986,0,0,0,2.678-11.009A10.659,10.659,0,0,0,7198.1-1647.239Z" transform="translate(36.658 71.403)" fill="#fff"/>
    <path id="Path_283" data-name="Path 283" d="M7128.986-1619.093c-2.1.845-4.258,3.226-5.9,6.559-.107.219-.213.44-.314.661-3.283,7.171-3.523,15.934-.551,18.888a3.051,3.051,0,0,0,3.645.618c2.23-.95,4.531-3.709,6.344-7.518.072-.159.145-.319.221-.478,3.109-6.895,3.3-15.265.373-18.118A3.383,3.383,0,0,0,7128.986-1619.093Z" transform="translate(26.839 76.161)" fill="#fff"/>
    <path id="Path_284" data-name="Path 284" d="M7067.781-1631.851c-1,.378-2.24,1.828-3.316,3.893-.316.611-.611,1.251-.9,1.952-3.086,7.614-2.789,15.569-.6,18.077.572.657,1.018.588,1.344.442.779-.326,2.105-1.68,3.482-4.447.293-.589.574-1.219.844-1.879,2.951-7.225,2.8-14.932.8-17.439C7068.758-1632.1,7068.168-1632,7067.781-1631.851Z" transform="translate(17.389 74.149)" fill="#fff"/>
    <path id="Path_285" data-name="Path 285" d="M7263.791-1660.412c-4.348-4.835-11.549-4.091-16.057,1.916-.125.169-.246.342-.375.512a16.361,16.361,0,0,0-2.988,10.1,11.19,11.19,0,0,0,2.838,7.139c4.389,4.731,11.645,3.683,16.2-2.1.223-.281.643-.874.643-.873a15.23,15.23,0,0,0,2.684-9.29A11.843,11.843,0,0,0,7263.791-1660.412Z" transform="translate(46.78 69.071)" fill="#fff"/>
    <path id="Path_286" data-name="Path 286" d="M7230.619-1655.677c-4.066-4.206-10.936-2.608-14.992,3.761a19.48,19.48,0,0,0-2.963,11.456c.143,2.091.742,5.014,2.793,6.993,4.018,3.873,11.24,1.652,15.223-4.424l.248-.4a17.362,17.362,0,0,0,2.645-10.053A11.283,11.283,0,0,0,7230.619-1655.677Z" transform="translate(41.685 69.964)" fill="#fff"/>
    <path id="Path_287" data-name="Path 287" d="M7012.455-1700.809c-1.863,4.475-2.2,9.933-1.279,12.943.129-.262.266-.566.414-.912,2.055-4.884,2.232-10.153,1.158-12.714C7012.656-1701.29,7012.557-1701.06,7012.455-1700.809Z" transform="translate(9.263 62.984)" fill="#fff"/>
    <path id="Path_288" data-name="Path 288" d="M7039.467-1666.727c-.168.047-.8.507-1.652,1.961a17.131,17.131,0,0,0-.984,2c-2.768,6.615-2.7,14.217-.922,16.8a2.258,2.258,0,0,0,.576.6,6.674,6.674,0,0,0,1.619-2.153c.334-.6.656-1.257.969-1.978,2.748-6.39,2.879-14.013,1.135-16.642C7039.881-1666.64,7039.582-1666.765,7039.467-1666.727Z" transform="translate(13.112 68.564)" fill="#fff"/>
    <path id="Path_289" data-name="Path 289" d="M7041.557-1719.695a4.135,4.135,0,0,0-1.52,1.554,13.817,13.817,0,0,0-1.082,1.926c-2.955,6.206-3.039,14.447-1.154,17.3.338.523.729.8,1.006.731s1.033-.608,2.012-2.113a17.323,17.323,0,0,0,1.053-1.881c2.74-5.675,3.26-13.54,1.072-16.6C7042.412-1719.521,7041.865-1719.777,7041.557-1719.695Z" transform="translate(13.414 60.06)" fill="#fff"/>
    <path id="Path_290" data-name="Path 290" d="M7100.477-1701.618c-1.561.4-3.268,1.912-4.8,4.267-.217.339-.43.689-.639,1.058-4.143,7.232-5.023,16.9-1.971,20.868a2.714,2.714,0,0,0,3.107,1.087c1.8-.515,3.83-2.437,5.574-5.244.18-.306.354-.611.537-.917,3.979-7.118,4.83-15.826,1.869-19.653A3.458,3.458,0,0,0,7100.477-1701.618Z" transform="translate(22.2 62.946)" fill="#fff"/>
    <path id="Path_291" data-name="Path 291" d="M7069.42-1685.312a7.638,7.638,0,0,0-3.461,3.4,19.752,19.752,0,0,0-1.02,1.905c-3.395,7.245-3.342,16.051-1.053,18.944a1.594,1.594,0,0,0,1.908.711c1.133-.385,2.549-1.888,3.795-4.006.338-.577.654-1.182.963-1.837,3.346-7.1,3.336-15.624,1.076-18.353A1.966,1.966,0,0,0,7069.42-1685.312Z" transform="translate(17.546 65.566)" fill="#fff"/>
    <path id="Path_292" data-name="Path 292" d="M7129.971-1668.527c-2.238.642-4.59,2.784-6.422,5.9-.178.3-.352.61-.521.931-3.779,7.157-4.23,16.723-1.006,20.22a3.582,3.582,0,0,0,4.082.975c2.309-.78,4.74-3.231,6.693-6.7.15-.277.3-.555.451-.833,3.582-6.935,4.041-15.674.963-19.3A3.841,3.841,0,0,0,7129.971-1668.527Z" transform="translate(26.794 68.245)" fill="#fff"/>
  </g>
</svg>
