<svg id="Group_230" data-name="Group 230" xmlns="http://www.w3.org/2000/svg" width="21.106" height="17.196" viewBox="0 0 21.106 17.196">
  <path id="Path_39" data-name="Path 39" d="M341.146,64.078h-.706a.894.894,0,0,0-.1-.014,11.427,11.427,0,0,1-1.3-.114,12.232,12.232,0,0,1-4.794-1.752c-.025-.015-.047-.034-.071-.052l.005-.019a8.732,8.732,0,0,0,3.345-.269,8.411,8.411,0,0,0,2.986-1.519,4.643,4.643,0,0,1-1.715-.419,4.439,4.439,0,0,1-1.418-1.06,3.757,3.757,0,0,1-.852-1.545,4.1,4.1,0,0,0,1.866-.077,4.532,4.532,0,0,1-1.769-.853,4.3,4.3,0,0,1-1.218-1.524,4.008,4.008,0,0,1-.409-1.91,5.677,5.677,0,0,0,.919.358,3.57,3.57,0,0,0,.977.143,4.351,4.351,0,0,1-1.769-2.629,4.3,4.3,0,0,1,.476-3.152,12.387,12.387,0,0,0,3.989,3.218,12.237,12.237,0,0,0,4.947,1.319c-.007-.052-.01-.085-.017-.118a4.2,4.2,0,0,1,.2-2.409,4.268,4.268,0,0,1,3.372-2.746c.13-.024.263-.036.395-.054h.594c.153.022.307.038.458.066a4.274,4.274,0,0,1,2.328,1.224.173.173,0,0,0,.188.057c.185-.05.374-.088.558-.139a8.606,8.606,0,0,0,1.957-.817c.032-.018.068-.032.1-.047l.017.022a4.424,4.424,0,0,1-1.831,2.327.2.2,0,0,0,.073,0,8.6,8.6,0,0,0,2.025-.527l.328-.129v.019c-.022.026-.046.05-.065.077a8.751,8.751,0,0,1-2,2.067.214.214,0,0,0-.1.2,12.132,12.132,0,0,1-.1,1.99,12.891,12.891,0,0,1-3.764,7.488,11.5,11.5,0,0,1-2.078,1.6,12.059,12.059,0,0,1-5.854,1.7C341.269,64.064,341.208,64.072,341.146,64.078Z" transform="translate(-334.172 -46.882)" fill="#fff"/>
</svg>
