<svg xmlns="http://www.w3.org/2000/svg" width="34.042" height="42.961" viewBox="0 0 34.042 42.961">
  <g id="icon" transform="matrix(0.966, -0.259, 0.259, 0.966, 1.225, 8.534)">
    <path id="Path_295" data-name="Path 295" d="M14.192.008h0A45.735,45.735,0,0,1,.774.008h0A.675.675,0,0,0,0,.723L.234,4.04a54.506,54.506,0,0,1,.02,7.34l-.1,1.536a9.388,9.388,0,0,0,4.6,8.433h0a5.363,5.363,0,0,0,5.466,0h0a9.385,9.385,0,0,0,4.6-8.433l-.1-1.536a54.587,54.587,0,0,1,.02-7.34L14.966.723A.675.675,0,0,0,14.192.008Z" transform="translate(6.56 0.034)" fill="none" stroke="#fff" stroke-linecap="round" stroke-linejoin="round" stroke-width="2"/>
    <g id="Group_237" data-name="Group 237">
      <path id="Path_296" data-name="Path 296" d="M6.837,11A6.6,6.6,0,0,1,3.5,5.279V1.752L0,0V5.279a10.112,10.112,0,0,0,5.1,8.77l.747.426a1.769,1.769,0,0,0,.864.228.639.639,0,0,0,.1-.006" fill="none" stroke="#fff" stroke-linecap="round" stroke-linejoin="round" stroke-width="2"/>
    </g>
    <g id="Group_238" data-name="Group 238" transform="translate(21.253)">
      <path id="Path_297" data-name="Path 297" d="M.018,14.679a1.283,1.283,0,0,0,.257.023,1.768,1.768,0,0,0,.864-.228l.748-.426a10.112,10.112,0,0,0,5.1-8.77V0l-3.5,1.752V5.279A6.606,6.606,0,0,1,.158,11L0,11.088" fill="none" stroke="#fff" stroke-linecap="round" stroke-linejoin="round" stroke-width="2"/>
    </g>
    <rect id="Rectangle_58" data-name="Rectangle 58" width="5.345" height="5.345" transform="translate(10.264 28.844) rotate(-45)" fill="none" stroke="#fff" stroke-linecap="round" stroke-linejoin="round" stroke-width="2"/>
    <path id="Path_298" data-name="Path 298" d="M0,0C0,.969.123,3.63.059,5.171" transform="translate(11.893 21.967)" fill="none" stroke="#fff" stroke-linecap="round" stroke-linejoin="round" stroke-width="2"/>
    <path id="Path_299" data-name="Path 299" d="M.059,4.726C-.035,3.377.012.864.012,0" transform="translate(15.595 21.967)" fill="none" stroke="#fff" stroke-linecap="round" stroke-linejoin="round" stroke-width="2"/>
    <path id="Path_300" data-name="Path 300" d="M7.628.146A8.675,8.675,0,0,0,9.519,2.884a1.125,1.125,0,0,1-.759,1.95H1.117A1.124,1.124,0,0,1,.341,2.9,7.913,7.913,0,0,0,2.162,0" transform="translate(9.077 29.818)" fill="none" stroke="#fff" stroke-linecap="round" stroke-linejoin="round" stroke-width="2"/>
    <path id="Path_301" data-name="Path 301" d="M0,.868H0a46.264,46.264,0,0,1,17.841,0h0" transform="translate(5.121 34.654)" fill="none" stroke="#fff" stroke-linecap="round" stroke-linejoin="round" stroke-width="2"/>
    <path id="Path_302" data-name="Path 302" d="M2.37.293Q1.183.176,0,0" transform="translate(6.937 3.633)" fill="none" stroke="#fff" stroke-linecap="round" stroke-linejoin="round" stroke-width="2"/>
    <path id="Path_303" data-name="Path 303" d="M8.76,0A48.424,48.424,0,0,1,0,.5" transform="translate(12.389 3.633)" fill="none" stroke="#fff" stroke-linecap="round" stroke-linejoin="round" stroke-width="2"/>
    <path id="Path_304" data-name="Path 304" d="M5.954,7,3.68,5.8,1.406,7,1.84,4.467,0,2.674,2.543,2.3,3.68,0,4.817,2.3l2.543.37L5.52,4.467" transform="translate(10.335 8.772)" fill="none" stroke="#fff" stroke-linecap="round" stroke-linejoin="round" stroke-width="2"/>
  </g>
</svg>
