<svg xmlns="http://www.w3.org/2000/svg" width="31.178" height="32.72" viewBox="0 0 31.178 32.72">
  <g id="Group_241" data-name="Group 241" transform="translate(1 1)">
    <rect id="Rectangle_62" data-name="Rectangle 62" width="12.025" height="6.147" rx="1.918" transform="translate(0 24.573)" fill="none" stroke="#fff" stroke-linecap="round" stroke-linejoin="round" stroke-width="2"/>
    <rect id="Rectangle_63" data-name="Rectangle 63" width="12.025" height="6.147" rx="1.918" transform="translate(17.152 24.573)" fill="none" stroke="#fff" stroke-linecap="round" stroke-linejoin="round" stroke-width="2"/>
    <path id="Path_305" data-name="Path 305" d="M2775.663,574.827v4.344a.9.9,0,0,0,.9.9h10.224a.9.9,0,0,0,.9-.9v-4.344" transform="translate(-2767.087 -568.872)" fill="none" stroke="#fff" stroke-linecap="round" stroke-linejoin="round" stroke-width="2"/>
    <path id="Path_306" data-name="Path 306" d="M2794.4,595.156v-6.723a1.644,1.644,0,0,0-1.645-1.644h-5.286a1.645,1.645,0,0,1-1.645-1.645v-3.359" transform="translate(-2769.585 -570.583)" fill="none" stroke="#fff" stroke-linecap="round" stroke-linejoin="round" stroke-width="2"/>
    <path id="Path_307" data-name="Path 307" d="M2774.444,597.862v-4.409a.67.67,0,0,1,.67-.669h12.524a.669.669,0,0,1,.669.669v4.409" transform="translate(-2766.787 -573.289)" fill="none" stroke="#fff" stroke-linecap="round" stroke-linejoin="round" stroke-width="2"/>
    <path id="Path_308" data-name="Path 308" d="M2778.659,581.784v3.359a1.645,1.645,0,0,1-1.645,1.645h-5.287a1.644,1.644,0,0,0-1.644,1.644v6.723" transform="translate(-2765.714 -570.583)" fill="none" stroke="#fff" stroke-linecap="round" stroke-linejoin="round" stroke-width="2"/>
    <path id="Path_309" data-name="Path 309" d="M2784.872,574.975l-2.615-1.374-2.614,1.374.5-2.911L2778.027,570l2.923-.425,1.307-2.649,1.307,2.649,2.923.425-2.115,2.062" transform="translate(-2767.669 -566.929)" fill="none" stroke="#fff" stroke-linecap="round" stroke-linejoin="round" stroke-width="2"/>
  </g>
</svg>
