<svg id="logo" xmlns="http://www.w3.org/2000/svg" width="260" height="42.129" viewBox="0 0 260 42.129">
  <path id="Path_1" data-name="Path 1" d="M609.784,1253.173h-2.133l1.03-4.009h2.085l.456-1.929h-2.157l1.055-4.009H612.2l.766-3.156h4.243l-.767,3.156h1.51l.743-3.156h4.242l-.767,3.156h1.869l-1.03,4.009h-1.8l-.456,1.929h1.846l-1.03,4.009h-1.822l-.719,3.006h-4.242l.743-3.006h-1.51l-.72,3.006h-4.266Zm6.854-3.833.5-2.255H615.32l-.5,2.255Z" transform="translate(-525.066 -1225.012)" fill="#fff"/>
  <path id="Path_2" data-name="Path 2" d="M649.359,1240.071h6.531a4.709,4.709,0,0,1,4.741,4.618,3.837,3.837,0,0,1-1.724,3.222,3.958,3.958,0,0,1,2.047,3.627,4.763,4.763,0,0,1-4.763,4.641h-6.833Zm6.121,6.262a1.292,1.292,0,0,0,1.315-1.374,1.23,1.23,0,0,0-1.315-1.307h-2.435v2.681Zm.345,6.241a1.2,1.2,0,0,0,1.293-1.285,1.252,1.252,0,0,0-1.293-1.4h-2.78v2.681Z" transform="translate(-547.982 -1225.012)" fill="#fff"/>
  <path id="Path_3" data-name="Path 3" d="M679.836,1253.727a6.489,6.489,0,0,1,6.6-6.556,6.661,6.661,0,0,1,6.595,6.871c0,.27-.021.743-.043.991h-9.268c.194,1.284,1.336,1.757,2.759,1.757a2.2,2.2,0,0,0,2.242-1.081h4.073a6.389,6.389,0,0,1-6.358,4.686A6.57,6.57,0,0,1,679.836,1253.727Zm9.116-1.284a2.589,2.589,0,0,0-2.586-1.667,2.317,2.317,0,0,0-2.521,1.667Z" transform="translate(-564.728 -1228.913)" fill="#fff"/>
  <path id="Path_4" data-name="Path 4" d="M713.23,1247.679a8.055,8.055,0,0,1,8-8.358,7.8,7.8,0,0,1,5.733,2.546l-2.155,2.456a4.69,4.69,0,0,0-3.577-1.352c-2.392,0-4.138,1.8-4.138,4.708,0,2.974,1.746,4.776,4.138,4.776a4.53,4.53,0,0,0,3.448-1.261l2.155,2.478a7.558,7.558,0,0,1-5.6,2.41C716.764,1256.082,713.23,1252.568,713.23,1247.679Z" transform="translate(-583.076 -1224.6)" fill="#fff"/>
  <path id="Path_5" data-name="Path 5" d="M759.875,1243.608v12.548h-3.664v-8.944h-3.772v8.944h-3.663v-16.085h3.663v3.537Z" transform="translate(-602.607 -1225.012)" fill="#fff"/>
  <path id="Path_6" data-name="Path 6" d="M779.4,1253.8c0-3.695,2.37-6.624,5.69-6.624a4.347,4.347,0,0,1,3.987,2.275h.108v-1.937h3.6v12.548h-3.6v-1.8h-.108a4.274,4.274,0,0,1-3.987,2.14C781.766,1260.4,779.4,1257.467,779.4,1253.8Zm9.246,0c0-1.78-.991-3.019-2.694-3.019-1.681,0-2.608,1.239-2.608,3.019,0,1.757.926,3,2.608,3C787.65,1256.792,788.642,1255.552,788.642,1253.8Z" transform="translate(-619.432 -1228.913)" fill="#fff"/>
  <path id="Path_7" data-name="Path 7" d="M835.748,1260.47h-3.664v-8.944H828.29v8.944h-3.664v-8.944h-3.772v8.944h-3.663v-12.548h18.557Z" transform="translate(-640.198 -1229.326)" fill="#fff"/>
  <path id="Path_8" data-name="Path 8" d="M866.42,1247.51h3.6v1.937h.108a4.691,4.691,0,0,1,4.181-2.275c3.125,0,5.474,2.929,5.474,6.624,0,3.672-2.349,6.6-5.474,6.6a4.424,4.424,0,0,1-4.073-2.14h-.108v5.384H866.42Zm9.548,6.286a2.708,2.708,0,0,0-2.737-3.019c-1.466,0-2.672,1.014-2.672,3.019,0,1.982,1.207,3,2.672,3A2.7,2.7,0,0,0,875.967,1253.8Z" transform="translate(-667.247 -1228.913)" fill="#fff"/>
  <path id="Path_9" data-name="Path 9" d="M901.632,1236.861a2.061,2.061,0,1,1,2.069,2.163A2.113,2.113,0,0,1,901.632,1236.861Zm.215,3.807h3.707v12.5h-3.707Z" transform="translate(-686.595 -1222.072)" fill="#fff"/>
  <path id="Path_10" data-name="Path 10" d="M916.272,1253.822a6.383,6.383,0,1,1,6.379,6.6A6.469,6.469,0,0,1,916.272,1253.822Zm9.073,0a2.639,2.639,0,0,0-2.694-2.974c-1.487,0-2.673.969-2.673,2.974a2.7,2.7,0,1,0,5.366,0Z" transform="translate(-694.639 -1228.94)" fill="#fff"/>
  <path id="Path_11" data-name="Path 11" d="M950.526,1247.922h11.1v12.548h-3.664v-8.944h-3.772v8.944h-3.663Z" transform="translate(-713.46 -1229.326)" fill="#fff"/>
  <path id="Path_12" data-name="Path 12" d="M981.193,1256.115h3.685c.022.541.5.744.97.744.6,0,.841-.2.841-.676,0-.563-.776-.654-1.466-.833-2.155-.586-3.794-1.644-3.794-4.078a4.191,4.191,0,0,1,4.44-4.1,4.32,4.32,0,0,1,4.44,4.235l-3.686-.022a.682.682,0,0,0-.755-.721c-.474,0-.754.2-.754.563,0,.541.754.653,1.487.856,1.444.383,3.707.969,3.707,4.032a4.567,4.567,0,0,1-9.117,0Z" transform="translate(-730.31 -1228.913)" fill="#fff"/>
  <g id="Group_2" data-name="Group 2">
    <path id="Path_13" data-name="Path 13" d="M433.822,1232.794l-6.675-11.562H440.5Z" transform="translate(-425.887 -1214.661)" fill="#db1e49"/>
    <path id="Path_14" data-name="Path 14" d="M545.255,1259.9l6.675,11.562h-13.35Z" transform="translate(-487.114 -1235.906)" fill="#fb9e27"/>
    <path id="Path_15" data-name="Path 15" d="M483.747,1213.22l3.838-6.569H475.119l-3.093,5.307-.745,1.262H460.4l3.837-6.573H451.781l-14,23.992H424.35l6.675,11.562h0l-3.835,6.571h12.458l3.835-6.571h10.89l-3.838,6.575H463l14.007-24H490.43Zm-22.622,17.419H450.236l3.422-5.863h10.889Z" transform="translate(-424.35 -1206.647)" fill="#fff"/>
  </g>
</svg>
