<svg xmlns="http://www.w3.org/2000/svg" width="11.41" height="21.941" viewBox="0 0 11.41 21.941">
  <g id="Group_231" data-name="Group 231" transform="translate(0)">
    <path id="Path_33" data-name="Path 33" d="M-897.309,56.535h-4.039c0-.058-.01-.117-.01-.175q0-4.834,0-9.668V46.52h-3.373V42.613h3.373v-.162c0-.942,0-1.885,0-2.827A6.064,6.064,0,0,1-901,37.539a4.221,4.221,0,0,1,2.153-2.42,5.16,5.16,0,0,1,2.285-.525c.853,0,1.705.041,2.558.072.229.008.457.042.683.063v3.514h-.161c-.623,0-1.245-.008-1.868,0a4.408,4.408,0,0,0-.8.079,1.28,1.28,0,0,0-1.082,1.084,4.121,4.121,0,0,0-.064.714c-.008.783,0,1.565,0,2.348v.151h3.855l-.506,3.906H-897.3V46.7q0,4.828,0,9.655C-897.3,56.418-897.305,56.477-897.309,56.535Z" transform="translate(904.731 -34.594)" fill="#fff"/>
  </g>
</svg>
