<svg xmlns="http://www.w3.org/2000/svg" width="41.412" height="42.176" viewBox="0 0 41.412 42.176">
  <g id="Group_299" data-name="Group 299" transform="translate(-2875.162 -483.37)">
    <g id="Group_298" data-name="Group 298" transform="translate(2886.586 495.703)">
      <path id="Path_343" data-name="Path 343" d="M2902.9,497.92h0a29.622,29.622,0,0,1-8.694,0h0a.438.438,0,0,0-.5.464l.151,2.149a35.373,35.373,0,0,1,.013,4.756l-.064,1a6.083,6.083,0,0,0,2.978,5.464h0a3.475,3.475,0,0,0,3.542,0h0a6.083,6.083,0,0,0,2.978-5.464l-.064-1a35.373,35.373,0,0,1,.013-4.756l.151-2.149A.439.439,0,0,0,2902.9,497.92Z" transform="translate(-2889.45 -497.915)" fill="none" stroke="#c0e6fc" stroke-linecap="round" stroke-linejoin="round" stroke-width="2"/>
      <g id="Group_296" data-name="Group 296" transform="translate(0 2.49)">
        <path id="Path_344" data-name="Path 344" d="M2888.62,500.891v.909a6.553,6.553,0,0,0,3.306,5.683l.484.276a1.151,1.151,0,0,0,.56.147.461.461,0,0,0,.068,0" transform="translate(-2888.62 -500.891)" fill="none" stroke="#c0e6fc" stroke-linecap="round" stroke-linejoin="round" stroke-width="2"/>
      </g>
      <g id="Group_297" data-name="Group 297" transform="translate(13.782 2.49)">
        <path id="Path_345" data-name="Path 345" d="M2905.092,507.891a.8.8,0,0,0,.167.015,1.149,1.149,0,0,0,.56-.147l.484-.276a6.552,6.552,0,0,0,3.307-5.683v-.909" transform="translate(-2905.092 -500.891)" fill="none" stroke="#c0e6fc" stroke-linecap="round" stroke-linejoin="round" stroke-width="2"/>
      </g>
      <path id="Path_346" data-name="Path 346" d="M2897.475,514.9c0,.268.014.735.028,1.261a13.566,13.566,0,0,1-.452,3.826h0a5.11,5.11,0,0,1-1.176,1.876.729.729,0,0,0,.5,1.257h4.953a.729.729,0,0,0,.485-1.269,5.628,5.628,0,0,1-1.22-1.768l-.065-.2a13.537,13.537,0,0,1-.651-4.234c0-.312.005-.577.005-.745" transform="translate(-2889.768 -500.689)" fill="none" stroke="#c0e6fc" stroke-linecap="round" stroke-linejoin="round" stroke-width="2"/>
      <path id="Path_347" data-name="Path 347" d="M2892.586,525.288h0a29.992,29.992,0,0,1,11.561,0h0" transform="translate(-2889.268 -502.293)" fill="none" stroke="#c0e6fc" stroke-linecap="round" stroke-linejoin="round" stroke-width="2"/>
    </g>
    <path id="Path_348" data-name="Path 348" d="M2915.309,510.823a20.09,20.09,0,1,1-19.058-26.453" transform="translate(0)" fill="none" stroke="#c0e6fc" stroke-linecap="round" stroke-linejoin="round" stroke-width="2"/>
    <path id="Path_349" data-name="Path 349" d="M2882.769,512.5a15.934,15.934,0,1,1,25.524,4.147" transform="translate(-0.806 -0.829)" fill="none" stroke="#c0e6fc" stroke-linecap="round" stroke-linejoin="round" stroke-width="2"/>
  </g>
</svg>
