<svg xmlns="http://www.w3.org/2000/svg" width="19.698" height="19.698" viewBox="0 0 19.698 19.698">
  <g id="Group_229" data-name="Group 229" transform="translate(0)">
    <path id="Path_34" data-name="Path 34" d="M-522.063,19.791c2.63,0,2.941.01,3.98.057a5.451,5.451,0,0,1,1.829.339,3.052,3.052,0,0,1,1.132.737,3.051,3.051,0,0,1,.737,1.132,5.45,5.45,0,0,1,.339,1.829c.047,1.039.057,1.35.057,3.98s-.01,2.941-.057,3.98a5.45,5.45,0,0,1-.339,1.829,3.052,3.052,0,0,1-.737,1.133,3.053,3.053,0,0,1-1.132.737,5.449,5.449,0,0,1-1.829.339c-1.038.047-1.35.057-3.98.057s-2.941-.01-3.98-.057a5.449,5.449,0,0,1-1.829-.339A3.053,3.053,0,0,1-529,34.807a3.054,3.054,0,0,1-.737-1.133,5.45,5.45,0,0,1-.339-1.829c-.047-1.038-.057-1.35-.057-3.98s.01-2.941.057-3.98a5.45,5.45,0,0,1,.339-1.829A3.054,3.054,0,0,1-529,20.925a3.051,3.051,0,0,1,1.133-.737,5.451,5.451,0,0,1,1.829-.339c1.039-.047,1.35-.057,3.98-.057m0-1.774c-2.675,0-3.01.011-4.061.059a7.23,7.23,0,0,0-2.391.458,4.828,4.828,0,0,0-1.744,1.136,4.827,4.827,0,0,0-1.136,1.745,7.225,7.225,0,0,0-.458,2.391c-.048,1.05-.059,1.386-.059,4.061s.011,3.01.059,4.061a7.225,7.225,0,0,0,.458,2.391,4.826,4.826,0,0,0,1.136,1.744,4.827,4.827,0,0,0,1.744,1.136,7.23,7.23,0,0,0,2.391.458c1.051.048,1.386.059,4.061.059s3.01-.011,4.061-.059a7.23,7.23,0,0,0,2.391-.458,4.827,4.827,0,0,0,1.744-1.136,4.826,4.826,0,0,0,1.136-1.744,7.227,7.227,0,0,0,.458-2.391c.048-1.05.059-1.386.059-4.061s-.011-3.01-.059-4.061a7.227,7.227,0,0,0-.458-2.391,4.827,4.827,0,0,0-1.136-1.745,4.828,4.828,0,0,0-1.744-1.136A7.23,7.23,0,0,0-518,18.076c-1.05-.048-1.386-.059-4.061-.059" transform="translate(531.912 -18.017)" fill="#fff"/>
    <path id="Path_35" data-name="Path 35" d="M-483.2,61.673a5.058,5.058,0,0,0-5.058,5.058,5.058,5.058,0,0,0,5.058,5.058,5.058,5.058,0,0,0,5.057-5.058,5.058,5.058,0,0,0-5.057-5.058m0,8.34a3.283,3.283,0,0,1-3.283-3.283,3.283,3.283,0,0,1,3.283-3.283,3.283,3.283,0,0,1,3.283,3.283,3.283,3.283,0,0,1-3.283,3.283" transform="translate(493.047 -56.882)" fill="#fff"/>
    <path id="Path_36" data-name="Path 36" d="M-402.678,50.266a1.182,1.182,0,0,1-1.182,1.182,1.182,1.182,0,0,1-1.182-1.182,1.182,1.182,0,0,1,1.182-1.182,1.182,1.182,0,0,1,1.182,1.182" transform="translate(418.966 -45.674)" fill="#fff"/>
  </g>
</svg>
